<svg width="180" height="35" viewBox="0 0 180 35" fill="none" xmlns="http://www.w3.org/2000/svg">
<g filter="url(#filter0_d_0_1)">
<rect x="1.55859" y="1.16248" width="32" height="32" rx="7.47572" fill="#3C50E0"/>
</g>
<path d="M46.9207 25.8811V8.22568H49.4497L58.1104 20.9185V8.22568H60.9019V25.8811H58.349L49.6883 13.3076V25.8811H46.9207ZM68.0434 26.1197C66.9778 26.1197 66.0552 25.9368 65.2758 25.5709C64.5124 25.1892 63.8761 24.6882 63.3671 24.0678C62.8741 23.4316 62.5003 22.7238 62.2458 21.9444C62.0072 21.165 61.8879 20.3697 61.8879 19.5586C61.8879 18.7633 62.0072 17.9759 62.2458 17.1965C62.4844 16.4172 62.8502 15.7093 63.3433 15.0731C63.8364 14.4369 64.4646 13.9359 65.2281 13.57C65.9916 13.1883 66.8903 12.9974 67.9242 12.9974C69.0376 12.9974 70.0158 13.2519 70.8588 13.7609C71.7177 14.254 72.3857 14.9936 72.8629 15.9797C73.356 16.95 73.6025 18.1588 73.6025 19.6063V20.3459H64.6317C64.6953 21.3161 65.0213 22.1512 65.6099 22.8511C66.1984 23.5509 67.0096 23.9008 68.0434 23.9008C68.632 23.9008 69.1171 23.8054 69.4988 23.6145C69.8806 23.4078 70.1748 23.1771 70.3816 22.9226C70.5884 22.6681 70.7315 22.4455 70.8111 22.2546C70.9065 22.0637 70.9542 21.9683 70.9542 21.9683H73.4832C73.4832 21.9683 73.4435 22.1114 73.3639 22.3977C73.2844 22.6681 73.1333 23.0101 72.9106 23.4237C72.7038 23.8372 72.4016 24.2508 72.004 24.6643C71.6063 25.0779 71.0815 25.4278 70.4293 25.7141C69.7772 25.9845 68.9819 26.1197 68.0434 26.1197ZM64.6555 18.4372H70.9781C70.9144 17.3238 70.5804 16.5046 69.976 15.9797C69.3875 15.4549 68.6956 15.1924 67.9003 15.1924C67.0096 15.1924 66.27 15.4867 65.6814 16.0752C65.0929 16.6478 64.7509 17.4351 64.6555 18.4372ZM81.4405 26.1197C80.6293 26.1197 79.9533 25.9924 79.4125 25.738C78.8876 25.4835 78.4661 25.1892 78.148 24.8552C77.8458 24.5212 77.6151 24.2349 77.4561 23.9963H77.3129V25.8811H74.593V7.7485H77.3129V15.1208H77.4561C77.6151 14.8822 77.8458 14.5959 78.148 14.2619C78.4661 13.9279 78.8876 13.6336 79.4125 13.3792C79.9533 13.1247 80.6293 12.9974 81.4405 12.9974C82.3789 12.9974 83.206 13.1883 83.9218 13.57C84.6375 13.9359 85.2261 14.4369 85.6873 15.0731C86.1645 15.6934 86.5144 16.3933 86.7371 17.1727C86.9757 17.9521 87.095 18.7474 87.095 19.5586C87.095 20.3697 86.9757 21.165 86.7371 21.9444C86.5144 22.7238 86.1645 23.4316 85.6873 24.0678C85.2261 24.6882 84.6375 25.1892 83.9218 25.5709C83.206 25.9368 82.3789 26.1197 81.4405 26.1197ZM80.8201 23.8531C81.6154 23.8531 82.2676 23.6463 82.7766 23.2328C83.3015 22.8033 83.6911 22.2625 83.9456 21.6104C84.216 20.9583 84.3512 20.2743 84.3512 19.5586C84.3512 18.8428 84.216 18.1588 83.9456 17.5067C83.6911 16.8546 83.3015 16.3217 82.7766 15.9082C82.2676 15.4787 81.6154 15.264 80.8201 15.264C80.0408 15.264 79.3886 15.4787 78.8637 15.9082C78.3547 16.3217 77.9651 16.8546 77.6947 17.5067C77.4402 18.1588 77.3129 18.8428 77.3129 19.5586C77.3129 20.2743 77.4402 20.9583 77.6947 21.6104C77.9651 22.2625 78.3547 22.8033 78.8637 23.2328C79.3886 23.6463 80.0408 23.8531 80.8201 23.8531ZM91.9437 26.1197C90.6712 26.1197 89.6771 25.722 88.9614 24.9268C88.2456 24.1315 87.8877 23.0737 87.8877 21.7536V13.236H90.6076V21.4195C90.6076 22.183 90.8064 22.7795 91.2041 23.2089C91.6176 23.6225 92.1743 23.8293 92.8742 23.8293C93.5581 23.8293 94.1069 23.6543 94.5204 23.3044C94.934 22.9544 95.2282 22.5091 95.4032 21.9683C95.5941 21.4116 95.6895 20.839 95.6895 20.2505V13.236H98.4094V25.8811H95.6895V24.0678H95.5464C95.4191 24.3064 95.2123 24.5927 94.926 24.9268C94.6556 25.2449 94.2739 25.5232 93.7808 25.7618C93.3036 26.0004 92.6913 26.1197 91.9437 26.1197ZM99.6558 25.8811L99.6797 7.7485H102.376V25.8811H99.6558ZM109.024 12.9974C109.82 12.9974 110.48 13.1247 111.005 13.3792C111.546 13.6336 111.975 13.9279 112.293 14.2619C112.611 14.5959 112.842 14.8822 112.985 15.1208H113.128V13.236H115.848V25.8811H113.128V23.9963H112.985C112.842 24.2349 112.611 24.5212 112.293 24.8552C111.975 25.1892 111.546 25.4835 111.005 25.738C110.48 25.9924 109.82 26.1197 109.024 26.1197C108.07 26.1197 107.235 25.9368 106.519 25.5709C105.819 25.1892 105.231 24.6882 104.754 24.0678C104.277 23.4316 103.919 22.7238 103.68 21.9444C103.457 21.165 103.346 20.3697 103.346 19.5586C103.346 18.7474 103.457 17.9521 103.68 17.1727C103.919 16.3933 104.277 15.6934 104.754 15.0731C105.231 14.4369 105.819 13.9359 106.519 13.57C107.235 13.1883 108.07 12.9974 109.024 12.9974ZM109.621 15.264C108.842 15.264 108.189 15.4787 107.665 15.9082C107.14 16.3217 106.742 16.8546 106.472 17.5067C106.217 18.1588 106.09 18.8428 106.09 19.5586C106.09 20.2743 106.217 20.9583 106.472 21.6104C106.742 22.2625 107.14 22.8033 107.665 23.2328C108.189 23.6463 108.842 23.8531 109.621 23.8531C110.4 23.8531 111.045 23.6463 111.553 23.2328C112.078 22.8033 112.468 22.2625 112.723 21.6104C112.993 20.9583 113.128 20.2743 113.128 19.5586C113.128 18.8428 112.993 18.1588 112.723 17.5067C112.468 16.8546 112.078 16.3217 111.553 15.9082C111.045 15.4787 110.4 15.264 109.621 15.264ZM116.241 25.8811L122.396 8.22568H125.975L132.155 25.8811H129.22L127.86 21.9206H120.535L119.175 25.8811H116.241ZM121.37 19.4393H127.025L124.21 11.208L121.37 19.4393ZM137.582 26.1197C136.628 26.1197 135.793 25.9368 135.077 25.5709C134.377 25.1892 133.789 24.6882 133.311 24.0678C132.834 23.4316 132.476 22.7238 132.238 21.9444C132.015 21.165 131.904 20.3697 131.904 19.5586C131.904 18.7474 132.015 17.9521 132.238 17.1727C132.476 16.3933 132.834 15.6934 133.311 15.0731C133.789 14.4369 134.377 13.9359 135.077 13.57C135.793 13.1883 136.628 12.9974 137.582 12.9974C138.377 12.9974 139.038 13.1247 139.562 13.3792C140.103 13.6336 140.533 13.9279 140.851 14.2619C141.169 14.5959 141.4 14.8822 141.543 15.1208H141.686V7.7485H144.406V25.8811H141.686V23.9963H141.543C141.4 24.2349 141.169 24.5212 140.851 24.8552C140.533 25.1892 140.103 25.4835 139.562 25.738C139.038 25.9924 138.377 26.1197 137.582 26.1197ZM138.179 23.8531C138.958 23.8531 139.602 23.6463 140.111 23.2328C140.636 22.8033 141.026 22.2625 141.28 21.6104C141.551 20.9583 141.686 20.2743 141.686 19.5586C141.686 18.8428 141.551 18.1588 141.28 17.5067C141.026 16.8546 140.636 16.3217 140.111 15.9082C139.602 15.4787 138.958 15.264 138.179 15.264C137.399 15.264 136.747 15.4787 136.222 15.9082C135.697 16.3217 135.3 16.8546 135.029 17.5067C134.775 18.1588 134.648 18.8428 134.648 19.5586C134.648 20.2743 134.775 20.9583 135.029 21.6104C135.3 22.2625 135.697 22.8033 136.222 23.2328C136.747 23.6463 137.399 23.8531 138.179 23.8531ZM145.652 25.8811V13.236H148.372V15.0254H148.467C148.61 14.7709 148.817 14.4846 149.087 14.1665C149.374 13.8484 149.748 13.578 150.209 13.3553C150.67 13.1167 151.251 12.9974 151.951 12.9974C152.889 12.9974 153.668 13.2201 154.289 13.6655C154.909 14.1108 155.37 14.6993 155.672 15.431H155.72C156.054 14.7948 156.539 14.2301 157.176 13.737C157.812 13.244 158.655 12.9974 159.705 12.9974C160.595 12.9974 161.351 13.2121 161.971 13.6416C162.592 14.0551 163.053 14.6198 163.355 15.3356C163.673 16.0354 163.832 16.8307 163.832 17.7214V25.8811H161.112V18.1032C161.112 17.2761 160.913 16.6001 160.516 16.0752C160.118 15.5503 159.53 15.2878 158.75 15.2878C158.114 15.2878 157.597 15.4628 157.199 15.8127C156.818 16.1627 156.539 16.6001 156.364 17.125C156.189 17.634 156.102 18.1509 156.102 18.6758V25.8811H153.382V18.1032C153.382 17.2761 153.183 16.6001 152.786 16.0752C152.388 15.5503 151.799 15.2878 151.02 15.2878C150.384 15.2878 149.867 15.4628 149.469 15.8127C149.087 16.1627 148.809 16.6001 148.634 17.125C148.459 17.634 148.372 18.1509 148.372 18.6758V25.8811H145.652ZM166.518 11.0649C166.024 11.0649 165.619 10.8978 165.301 10.5638C164.983 10.2298 164.824 9.84011 164.824 9.39475C164.824 8.93348 164.983 8.54379 165.301 8.22568C165.619 7.89165 166.024 7.72464 166.518 7.72464C167.011 7.72464 167.416 7.89165 167.734 8.22568C168.068 8.54379 168.235 8.93348 168.235 9.39475C168.235 9.85602 168.068 10.2537 167.734 10.5877C167.416 10.9058 167.011 11.0649 166.518 11.0649ZM165.181 25.8811V13.236H167.901V25.8811H165.181ZM169.247 25.8811V13.236H171.967V15.0731H172.11C172.221 14.8504 172.412 14.58 172.682 14.2619C172.953 13.9279 173.327 13.6336 173.804 13.3792C174.297 13.1247 174.917 12.9974 175.665 12.9974C176.603 12.9974 177.391 13.2121 178.027 13.6416C178.663 14.0711 179.14 14.6437 179.458 15.3594C179.792 16.0752 179.959 16.8625 179.959 17.7214V25.8811H177.239V18.0077C177.239 17.2443 177.025 16.6001 176.595 16.0752C176.182 15.5503 175.561 15.2878 174.734 15.2878C174.082 15.2878 173.549 15.4549 173.136 15.7889C172.738 16.107 172.444 16.5285 172.253 17.0534C172.062 17.5624 171.967 18.1111 171.967 18.6996V25.8811H169.247Z" fill="white"/>
<path fill-rule="evenodd" clip-rule="evenodd" d="M13.4421 7.88017H23.1799V16.205C23.5282 15.905 23.8474 15.6169 24.1336 15.3442V7.88017V6.92639H23.1799H13.4421H12.4883V7.88017V23.1517C12.7875 23.0196 13.1064 22.8695 13.4421 22.7028V7.88017ZM13.4421 23.291C13.1085 23.4455 12.7898 23.5841 12.4883 23.7059V27.479V28.4327H13.4421H23.1799H24.1336V27.479V16.0597C23.8404 16.3374 23.5217 16.6251 23.1799 16.9202V27.479H13.4421V23.291Z" fill="#2A2D43"/>
<path fill-rule="evenodd" clip-rule="evenodd" d="M12.7018 7.09074H22.4396V15.4215C22.7878 15.1218 23.107 14.8339 23.3934 14.5614V7.09074V6.13696H22.4396H12.7018H11.748V7.09074V22.3651C12.0472 22.2332 12.3661 22.0833 12.7018 21.9167V7.09074ZM12.7018 22.5046C12.3682 22.659 12.0495 22.7975 11.748 22.919V26.6895V27.6433H12.7018H22.4396H23.3934V26.6895V15.2769C23.1001 15.5544 22.7813 15.8419 22.4396 16.1368V26.6895H12.7018V22.5046Z" fill="white"/>
<path fill-rule="evenodd" clip-rule="evenodd" d="M17.5732 19.6843C19.1163 19.6843 20.3672 18.4334 20.3672 16.8904C20.3672 15.3473 19.1163 14.0964 17.5732 14.0964C16.0302 14.0964 14.7793 15.3473 14.7793 16.8904C14.7793 18.0858 15.5301 19.1059 16.5858 19.5048C17.5731 18.9568 18.2875 18.46 18.632 18.0684L19.3561 17.8365C19.1954 18.3142 18.4578 18.9587 17.3074 19.6718C17.3949 19.6801 17.4836 19.6843 17.5732 19.6843Z" fill="white"/>
<circle cx="12.1456" cy="10.6402" r="1.02838" fill="white"/>
<path fill-rule="evenodd" clip-rule="evenodd" d="M18.2429 18.7547C22.8546 15.6489 26.1004 12.3995 25.4925 11.4969C24.8847 10.5943 20.6533 12.3803 16.0416 15.486C11.4298 18.5918 8.18407 21.8412 8.79193 22.7438C9.3998 23.6464 13.6311 21.8604 18.2429 18.7547ZM17.9693 18.2676C22.3513 15.3165 25.5036 12.3301 25.01 11.5972C24.5165 10.8644 20.564 12.6626 16.182 15.6136C11.7999 18.5647 8.64765 21.5511 9.1412 22.284C9.63474 23.0169 13.5872 21.2186 17.9693 18.2676Z" fill="#EBEDFB"/>
<path d="M17.9739 8.05212L18.2268 8.54116L18.7701 8.63058L18.3831 9.02225L18.4659 9.56655L17.9739 9.31958L17.4818 9.56655L17.5646 9.02225L17.1777 8.63058L17.721 8.54116L17.9739 8.05212Z" fill="#C5CBF5"/>
<path d="M25.9772 8.4707L26.1036 8.71522L26.3753 8.75993L26.1818 8.95576L26.2232 9.22792L25.9772 9.10443L25.7311 9.22792L25.7726 8.95576L25.5791 8.75993L25.8507 8.71522L25.9772 8.4707Z" fill="#C5CBF5"/>
<path d="M27.6686 16.053L27.795 16.2975L28.0667 16.3422L27.8732 16.538L27.9146 16.8102L27.6686 16.6867L27.4225 16.8102L27.464 16.538L27.2705 16.3422L27.5421 16.2975L27.6686 16.053Z" fill="#C5CBF5"/>
<path d="M25.3538 20.3732L25.4171 20.4954L25.5529 20.5178L25.4561 20.6157L25.4768 20.7518L25.3538 20.69L25.2308 20.7518L25.2515 20.6157L25.1548 20.5178L25.2906 20.4954L25.3538 20.3732Z" fill="#C5CBF5"/>
<path d="M20.6976 9.72644L20.7608 9.8487L20.8966 9.87106L20.7999 9.96897L20.8206 10.105L20.6976 10.0433L20.5746 10.105L20.5953 9.96897L20.4985 9.87106L20.6343 9.8487L20.6976 9.72644Z" fill="white"/>
<path d="M16.5198 12.3719L16.5831 12.4942L16.7189 12.5166L16.6221 12.6145L16.6429 12.7506L16.5198 12.6888L16.3968 12.7506L16.4175 12.6145L16.3208 12.5166L16.4566 12.4942L16.5198 12.3719Z" fill="white"/>
<path d="M20.4876 19.9546L20.6514 20.2713L21.0033 20.3293L20.7526 20.583L20.8063 20.9355L20.4876 20.7755L20.1688 20.9355L20.2225 20.583L19.9719 20.3293L20.3237 20.2713L20.4876 19.9546Z" fill="#C5CBF5"/>
<path d="M15.3215 24.3217L15.4854 24.6384L15.8372 24.6963L15.5866 24.95L15.6403 25.3026L15.3215 25.1426L15.0028 25.3026L15.0565 24.95L14.8058 24.6963L15.1577 24.6384L15.3215 24.3217Z" fill="#C5CBF5"/>
<path d="M14.8532 16.3163L14.8086 16.5895L18.449 14.2368L18.104 14.1465L16.3863 15.1456L14.8532 16.3163Z" fill="white"/>
<defs>
<filter id="filter0_d_0_1" x="0.922362" y="0.84436" width="33.2725" height="33.2725" filterUnits="userSpaceOnUse" color-interpolation-filters="sRGB">
<feFlood flood-opacity="0" result="BackgroundImageFix"/>
<feColorMatrix in="SourceAlpha" type="matrix" values="0 0 0 0 0 0 0 0 0 0 0 0 0 0 0 0 0 0 127 0" result="hardAlpha"/>
<feOffset dy="0.318116"/>
<feGaussianBlur stdDeviation="0.318116"/>
<feComposite in2="hardAlpha" operator="out"/>
<feColorMatrix type="matrix" values="0 0 0 0 0 0 0 0 0 0 0 0 0 0 0 0 0 0 0.35 0"/>
<feBlend mode="normal" in2="BackgroundImageFix" result="effect1_dropShadow_0_1"/>
<feBlend mode="normal" in="SourceGraphic" in2="effect1_dropShadow_0_1" result="shape"/>
</filter>
</defs>
</svg>
