<svg width="35" height="35" viewBox="0 0 35 35" fill="none" xmlns="http://www.w3.org/2000/svg">
<g filter="url(#filter0_d_0_1)">
<rect x="1.55859" y="1.16248" width="32" height="32" rx="7.47572" fill="#3C50E0"/>
</g>
<path fill-rule="evenodd" clip-rule="evenodd" d="M13.4421 7.88017H23.1799V16.205C23.5282 15.905 23.8474 15.6169 24.1336 15.3442V7.88017V6.92639H23.1799H13.4421H12.4883V7.88017V23.1517C12.7875 23.0196 13.1064 22.8695 13.4421 22.7028V7.88017ZM13.4421 23.291C13.1085 23.4455 12.7898 23.5841 12.4883 23.7059V27.479V28.4327H13.4421H23.1799H24.1336V27.479V16.0597C23.8404 16.3374 23.5217 16.6251 23.1799 16.9202V27.479H13.4421V23.291Z" fill="#2A2D43"/>
<path fill-rule="evenodd" clip-rule="evenodd" d="M12.7018 7.09074H22.4396V15.4215C22.7878 15.1218 23.107 14.8339 23.3934 14.5614V7.09074V6.13696H22.4396H12.7018H11.748V7.09074V22.3651C12.0472 22.2332 12.3661 22.0833 12.7018 21.9167V7.09074ZM12.7018 22.5046C12.3682 22.659 12.0495 22.7975 11.748 22.919V26.6895V27.6433H12.7018H22.4396H23.3934V26.6895V15.2769C23.1001 15.5544 22.7813 15.8419 22.4396 16.1368V26.6895H12.7018V22.5046Z" fill="white"/>
<path fill-rule="evenodd" clip-rule="evenodd" d="M17.5732 19.6843C19.1163 19.6843 20.3672 18.4334 20.3672 16.8904C20.3672 15.3473 19.1163 14.0964 17.5732 14.0964C16.0302 14.0964 14.7793 15.3473 14.7793 16.8904C14.7793 18.0858 15.5301 19.1059 16.5858 19.5048C17.5731 18.9568 18.2875 18.46 18.632 18.0684L19.3561 17.8365C19.1954 18.3142 18.4578 18.9587 17.3074 19.6718C17.3949 19.6801 17.4836 19.6843 17.5732 19.6843Z" fill="white"/>
<circle cx="12.1456" cy="10.6402" r="1.02838" fill="white"/>
<path fill-rule="evenodd" clip-rule="evenodd" d="M18.2429 18.7547C22.8546 15.6489 26.1004 12.3995 25.4925 11.4969C24.8847 10.5943 20.6533 12.3803 16.0416 15.486C11.4298 18.5918 8.18407 21.8412 8.79193 22.7438C9.3998 23.6464 13.6311 21.8604 18.2429 18.7547ZM17.9693 18.2676C22.3513 15.3165 25.5036 12.3301 25.01 11.5972C24.5165 10.8644 20.564 12.6626 16.182 15.6136C11.7999 18.5647 8.64765 21.5511 9.1412 22.284C9.63474 23.0169 13.5872 21.2186 17.9693 18.2676Z" fill="#EBEDFB"/>
<path d="M17.9739 8.05212L18.2268 8.54116L18.7701 8.63058L18.3831 9.02225L18.4659 9.56655L17.9739 9.31958L17.4818 9.56655L17.5646 9.02225L17.1777 8.63058L17.721 8.54116L17.9739 8.05212Z" fill="#C5CBF5"/>
<path d="M25.9772 8.4707L26.1036 8.71522L26.3753 8.75993L26.1818 8.95576L26.2232 9.22792L25.9772 9.10443L25.7311 9.22792L25.7726 8.95576L25.5791 8.75993L25.8507 8.71522L25.9772 8.4707Z" fill="#C5CBF5"/>
<path d="M27.6686 16.053L27.795 16.2975L28.0667 16.3422L27.8732 16.538L27.9146 16.8102L27.6686 16.6867L27.4225 16.8102L27.464 16.538L27.2705 16.3422L27.5421 16.2975L27.6686 16.053Z" fill="#C5CBF5"/>
<path d="M25.3538 20.3732L25.4171 20.4954L25.5529 20.5178L25.4561 20.6157L25.4768 20.7518L25.3538 20.69L25.2308 20.7518L25.2515 20.6157L25.1548 20.5178L25.2906 20.4954L25.3538 20.3732Z" fill="#C5CBF5"/>
<path d="M20.6976 9.72644L20.7608 9.8487L20.8966 9.87106L20.7999 9.96897L20.8206 10.105L20.6976 10.0433L20.5746 10.105L20.5953 9.96897L20.4985 9.87106L20.6343 9.8487L20.6976 9.72644Z" fill="white"/>
<path d="M16.5198 12.3719L16.5831 12.4942L16.7189 12.5166L16.6221 12.6145L16.6429 12.7506L16.5198 12.6888L16.3968 12.7506L16.4175 12.6145L16.3208 12.5166L16.4566 12.4942L16.5198 12.3719Z" fill="white"/>
<path d="M20.4876 19.9546L20.6514 20.2713L21.0033 20.3293L20.7526 20.583L20.8063 20.9355L20.4876 20.7755L20.1688 20.9355L20.2225 20.583L19.9719 20.3293L20.3237 20.2713L20.4876 19.9546Z" fill="#C5CBF5"/>
<path d="M15.3215 24.3217L15.4854 24.6384L15.8372 24.6963L15.5866 24.95L15.6403 25.3026L15.3215 25.1426L15.0028 25.3026L15.0565 24.95L14.8058 24.6963L15.1577 24.6384L15.3215 24.3217Z" fill="#C5CBF5"/>
<path d="M14.8532 16.3163L14.8086 16.5895L18.449 14.2368L18.104 14.1465L16.3863 15.1456L14.8532 16.3163Z" fill="white"/>
<defs>
<filter id="filter0_d_0_1" x="0.922362" y="0.84436" width="33.2725" height="33.2725" filterUnits="userSpaceOnUse" color-interpolation-filters="sRGB">
<feFlood flood-opacity="0" result="BackgroundImageFix"/>
<feColorMatrix in="SourceAlpha" type="matrix" values="0 0 0 0 0 0 0 0 0 0 0 0 0 0 0 0 0 0 127 0" result="hardAlpha"/>
<feOffset dy="0.318116"/>
<feGaussianBlur stdDeviation="0.318116"/>
<feComposite in2="hardAlpha" operator="out"/>
<feColorMatrix type="matrix" values="0 0 0 0 0 0 0 0 0 0 0 0 0 0 0 0 0 0 0.35 0"/>
<feBlend mode="normal" in2="BackgroundImageFix" result="effect1_dropShadow_0_1"/>
<feBlend mode="normal" in="SourceGraphic" in2="effect1_dropShadow_0_1" result="shape"/>
</filter>
</defs>
</svg>
